<svg id="Layer_2" data-name="Layer 2" xmlns="http://www.w3.org/2000/svg" viewBox="86 0 88 80" xmlns:c2pa="http://c2pa.org/manifest"><metadata><c2pa:manifest>AAAWgmp1bWIAAAAeanVtZGMycGEAEQAQgAAAqgA4m3EDYzJwYQAAABZcanVtYgAAAEdqdW1kYzJtYQARABCAAACqADibcQN1cm46YzJwYTo4MzgyNTA2OS00ODA3LTQ0MDYtOTUwOC1iOTYwMjg5ODIyMzAAAAADl2p1bWIAAAApanVtZGMyYXMAEQAQgAAAqgA4m3EDYzJwYS5hc3NlcnRpb25zAAAAALxqdW1iAAAARGp1bWRjYm9yABEAEIAAAKoAOJtxE2MycGEuaW5ncmVkaWVudC52MwAAAAAYYzJzaNSn6sy+5jVmRsOBk2uIy/UAAABwY2JvcqNpZGM6Zm9ybWF0bWltYWdlL3N2Zyt4bWxqaW5zdGFuY2VJRHgseG1wOmlpZDowODI4ODlhZi0yNWY0LTRhZDctYmY4OS02NjI0MDdiNDhmZDRscmVsYXRpb25zaGlwaHBhcmVudE9mAAAB4mp1bWIAAABBanVtZGNib3IAEQAQgAAAqgA4m3ETYzJwYS5hY3Rpb25zLnYyAAAAABhjMnNo+cPcPzx6d0uf2QiwcRdwIQAAAZljYm9yomdhY3Rpb25zgqJmYWN0aW9ua2MycGEub3BlbmVkanBhcmFtZXRlcnOha2luZ3JlZGllbnRzgaJjdXJseC1zZWxmI2p1bWJmPWMycGEuYXNzZXJ0aW9ucy9jMnBhLmluZ3JlZGllbnQudjNkaGFzaFggMVppshc/YiIMmt5BvRw373jiw5pnw54pb2SglstbrVGkZmFjdGlvbngdY29tLmFudGhyb3BpYy5jbGF1ZGUucHJvdmlkZWRqcGFyYW1ldGVyc6F4H2NvbS5hbnRocm9waWMub3JpZ2luLWNvbmZpZGVuY2VndW5rbm93bmtkZXNjcmlwdGlvbnhmQ2xhdWRlIHByb3ZpZGVkIHRoaXMgZmlsZSBhdCB0aGUgcmVxdWVzdCBvZiBhIHVzZXIgYW5kIG1heSBoYXZlIGNyZWF0ZWQgb3IgbW9kaWZpZWQgdGhlIGZpbGUgY29udGVudHMubXNvZnR3YXJlQWdlbnShZG5hbWVmQ2xhdWRlcmFsbEFjdGlvbnNJbmNsdWRlZPUAAADIanVtYgAAAEBqdW1kY2JvcgARABCAAACqADibcRNjMnBhLmhhc2guZGF0YQAAAAAYYzJzaC5FoGNHmoEtHQFeQZv9w3MAAACAY2JvcqVjYWxnZnNoYTI1NmNwYWRNAAAAAAAAAAAAAAAAAGRoYXNoWCB/1UcQ4B4gT33kcCT/K1b/hPzOX9/RlgQ2llfy3mmaCWRuYW1lbmp1bWJmIG1hbmlmZXN0amV4Y2x1c2lvbnOBomVzdGFydBidZmxlbmd0aBkeBAAAAj5qdW1iAAAAJ2p1bWRjMmNsABEAEIAAAKoAOJtxA2MycGEuY2xhaW0udjIAAAACD2Nib3KlY2FsZ2ZzaGEyNTZpc2lnbmF0dXJleE1zZWxmI2p1bWJmPS9jMnBhL3VybjpjMnBhOjgzODI1MDY5LTQ4MDctNDQwNi05NTA4LWI5NjAyODk4MjIzMC9jMnBhLnNpZ25hdHVyZWppbnN0YW5jZUlEeCx4bXA6aWlkOjY3OTExYjUyLWYzZGEtNDllMi1iNTc2LTc3MTU2NzFhNDk5MnJjcmVhdGVkX2Fzc2VydGlvbnODomN1cmx4LXNlbGYjanVtYmY9YzJwYS5hc3NlcnRpb25zL2MycGEuaW5ncmVkaWVudC52M2RoYXNoWCAxWmmyFz9iIgya3kG9HDfveOLDmmfDnilvZKCWy1utUaJjdXJseCpzZWxmI2p1bWJmPWMycGEuYXNzZXJ0aW9ucy9jMnBhLmFjdGlvbnMudjJkaGFzaFggamUSgMRibJQSqLQuoD2Zkc3ZV4shoaaEB5EsAPlfRSyiY3VybHgpc2VsZiNqdW1iZj1jMnBhLmFzc2VydGlvbnMvYzJwYS5oYXNoLmRhdGFkaGFzaFggRnbvyyWVPtQGtZbgDz3IvOyuDVfPS18bIbCXjPZGbYx0Y2xhaW1fZ2VuZXJhdG9yX2luZm+jZG5hbWVvQW50aHJvcGljIEZpbGVzZ3ZlcnNpb25lMS4wLjBrc3BlY1ZlcnNpb25lMi40LjAAABA4anVtYgAAAChqdW1kYzJjcwARABCAAACqADibcQNjMnBhLnNpZ25hdHVyZQAAABAIY2JvctKEWQISogEmGCFZAgowggIGMIIBjaADAgECAhRA5aAK7sI50L64g/oGQgU9Z1UTADAKBggqhkjOPQQDAzBJMRcwFQYDVQQKEw5BbnRocm9waWMsIFBCQzEuMCwGA1UEAxMlQW50aHJvcGljIENvbnRlbnQgQ3JlZGVudGlhbHMgUm9vdCBDQTAeFw0yNjA4MDcxODQzNTZaFw0yODA4MDYxOTQzNTZaMEQxFzAVBgNVBAoTDkFudGhyb3BpYywgUEJDMSkwJwYDVQQDEyBBbnRocm9waWMgQ2xhdWRlIENvbnRlbnQgU2lnbmluZzBZMBMGByqGSM49AgEGCCqGSM49AwEHA0IABJh6CmvLUBgFFNU0vUKlOVtE6djd17L5SuwX0LemFisBM3dkd/3cyjxFA3Qo5S46fX0/ihY0VZ7mfb9KF703t5OjWDBWMA4GA1UdDwEB/wQEAwIHgDAVBgNVHSUEDjAMBgorBgEEAYPoXgIBMAwGA1UdEwEB/wQCMAAwHwYDVR0jBBgwFoAUzlHiBIFOZFsj+OPEz5o+nMHXXMIwCgYIKoZIzj0EAwMDZwAwZAIwMXMdFJ4BetLLVY7ORuE9noqbbAZOZn/aArXyTwFAZfKrPzxF2vPoJNf1+UCdg1XGAjBwX1zd9WGqYkqmL5SFqw1QySjr1zJfpJM9+1rdDwSPLMOPOjKuiXjoU/pUUeG9RwmhY3BhZFkNngAAAAAAAAAAAAAAAAAAAAAAAAAAAAAAAAAAAAAAAAAAAAAAAAAAAAAAAAAAAAAAAAAAAAAAAAAAAAAAAAAAAAAAAAAAAAAAAAAAAAAAAAAAAAAAAAAAAAAAAAAAAAAAAAAAAAAAAAAAAAAAAAAAAAAAAAAAAAAAAAAAAAAAAAAAAAAAAAAAAAAAAAAAAAAAAAAAAAAAAAAAAAAAAAAAAAAAAAAAAAAAAAAAAAAAAAAAAAAAAAAAAAAAAAAAAAAAAAAAAAAAAAAAAAAAAAAAAAAAAAAAAAAAAAAAAAAAAAAAAAAAAAAAAAAAAAAAAAAAAAAAAAAAAAAAAAAAAAAAAAAAAAAAAAAAAAAAAAAAAAAAAAAAAAAAAAAAAAAAAAAAAAAAAAAAAAAAAAAAAAAAAAAAAAAAAAAAAAAAAAAAAAAAAAAAAAAAAAAAAAAAAAAAAAAAAAAAAAAAAAAAAAAAAAAAAAAAAAAAAAAAAAAAAAAAAAAAAAAAAAAAAAAAAAAAAAAAAAAAAAAAAAAAAAAAAAAAAAAAAAAAAAAAAAAAAAAAAAAAAAAAAAAAAAAAAAAAAAAAAAAAAAAAAAAAAAAAAAAAAAAAAAAAAAAAAAAAAAAAAAAAAAAAAAAAAAAAAAAAAAAAAAAAAAAAAAAAAAAAAAAAAAAAAAAAAAAAAAAAAAAAAAAAAAAAAAAAAAAAAAAAAAAAAAAAAAAAAAAAAAAAAAAAAAAAAAAAAAAAAAAAAAAAAAAAAAAAAAAAAAAAAAAAAAAAAAAAAAAAAAAAAAAAAAAAAAAAAAAAAAAAAAAAAAAAAAAAAAAAAAAAAAAAAAAAAAAAAAAAAAAAAAAAAAAAAAAAAAAAAAAAAAAAAAAAAAAAAAAAAAAAAAAAAAAAAAAAAAAAAAAAAAAAAAAAAAAAAAAAAAAAAAAAAAAAAAAAAAAAAAAAAAAAAAAAAAAAAAAAAAAAAAAAAAAAAAAAAAAAAAAAAAAAAAAAAAAAAAAAAAAAAAAAAAAAAAAAAAAAAAAAAAAAAAAAAAAAAAAAAAAAAAAAAAAAAAAAAAAAAAAAAAAAAAAAAAAAAAAAAAAAAAAAAAAAAAAAAAAAAAAAAAAAAAAAAAAAAAAAAAAAAAAAAAAAAAAAAAAAAAAAAAAAAAAAAAAAAAAAAAAAAAAAAAAAAAAAAAAAAAAAAAAAAAAAAAAAAAAAAAAAAAAAAAAAAAAAAAAAAAAAAAAAAAAAAAAAAAAAAAAAAAAAAAAAAAAAAAAAAAAAAAAAAAAAAAAAAAAAAAAAAAAAAAAAAAAAAAAAAAAAAAAAAAAAAAAAAAAAAAAAAAAAAAAAAAAAAAAAAAAAAAAAAAAAAAAAAAAAAAAAAAAAAAAAAAAAAAAAAAAAAAAAAAAAAAAAAAAAAAAAAAAAAAAAAAAAAAAAAAAAAAAAAAAAAAAAAAAAAAAAAAAAAAAAAAAAAAAAAAAAAAAAAAAAAAAAAAAAAAAAAAAAAAAAAAAAAAAAAAAAAAAAAAAAAAAAAAAAAAAAAAAAAAAAAAAAAAAAAAAAAAAAAAAAAAAAAAAAAAAAAAAAAAAAAAAAAAAAAAAAAAAAAAAAAAAAAAAAAAAAAAAAAAAAAAAAAAAAAAAAAAAAAAAAAAAAAAAAAAAAAAAAAAAAAAAAAAAAAAAAAAAAAAAAAAAAAAAAAAAAAAAAAAAAAAAAAAAAAAAAAAAAAAAAAAAAAAAAAAAAAAAAAAAAAAAAAAAAAAAAAAAAAAAAAAAAAAAAAAAAAAAAAAAAAAAAAAAAAAAAAAAAAAAAAAAAAAAAAAAAAAAAAAAAAAAAAAAAAAAAAAAAAAAAAAAAAAAAAAAAAAAAAAAAAAAAAAAAAAAAAAAAAAAAAAAAAAAAAAAAAAAAAAAAAAAAAAAAAAAAAAAAAAAAAAAAAAAAAAAAAAAAAAAAAAAAAAAAAAAAAAAAAAAAAAAAAAAAAAAAAAAAAAAAAAAAAAAAAAAAAAAAAAAAAAAAAAAAAAAAAAAAAAAAAAAAAAAAAAAAAAAAAAAAAAAAAAAAAAAAAAAAAAAAAAAAAAAAAAAAAAAAAAAAAAAAAAAAAAAAAAAAAAAAAAAAAAAAAAAAAAAAAAAAAAAAAAAAAAAAAAAAAAAAAAAAAAAAAAAAAAAAAAAAAAAAAAAAAAAAAAAAAAAAAAAAAAAAAAAAAAAAAAAAAAAAAAAAAAAAAAAAAAAAAAAAAAAAAAAAAAAAAAAAAAAAAAAAAAAAAAAAAAAAAAAAAAAAAAAAAAAAAAAAAAAAAAAAAAAAAAAAAAAAAAAAAAAAAAAAAAAAAAAAAAAAAAAAAAAAAAAAAAAAAAAAAAAAAAAAAAAAAAAAAAAAAAAAAAAAAAAAAAAAAAAAAAAAAAAAAAAAAAAAAAAAAAAAAAAAAAAAAAAAAAAAAAAAAAAAAAAAAAAAAAAAAAAAAAAAAAAAAAAAAAAAAAAAAAAAAAAAAAAAAAAAAAAAAAAAAAAAAAAAAAAAAAAAAAAAAAAAAAAAAAAAAAAAAAAAAAAAAAAAAAAAAAAAAAAAAAAAAAAAAAAAAAAAAAAAAAAAAAAAAAAAAAAAAAAAAAAAAAAAAAAAAAAAAAAAAAAAAAAAAAAAAAAAAAAAAAAAAAAAAAAAAAAAAAAAAAAAAAAAAAAAAAAAAAAAAAAAAAAAAAAAAAAAAAAAAAAAAAAAAAAAAAAAAAAAAAAAAAAAAAAAAAAAAAAAAAAAAAAAAAAAAAAAAAAAAAAAAAAAAAAAAAAAAAAAAAAAAAAAAAAAAAAAAAAAAAAAAAAAAAAAAAAAAAAAAAAAAAAAAAAAAAAAAAAAAAAAAAAAAAAAAAAAAAAAAAAAAAAAAAAAAAAAAAAAAAAAAAAAAAAAAAAAAAAAAAAAAAAAAAAAAAAAAAAAAAAAAAAAAAAAAAAAAAAAAAAAAAAAAAAAAAAAAAAAAAAAAAAAAAAAAAAAAAAAAAAAAAAAAAAAAAAAAAAAAAAAAAAAAAAAAAAAAAAAAAAAAAAAAAAAAAAAAAAAAAAAAAAAAAAAAAAAAAAAAAAAAAAAAAAAAAAAAAAAAAAAAAAAAAAAAAAAAAAAAAAAAAAAAAAAAAAAAAAAAAAAAAAAAAAAAAAAAAAAAAAAAAAAAAAAAAAAAAAAAAAAAAAAAAAAAAAAAAAAAAAAAAAAAAAAAAAAAAAAAAAAAAAAAAAAAAAAAAAAAAAAAAAAAAAAAAAAAAAAAAAAAAAAAAAAAAAAAAAAAAAAAAAAAAAAAAAAAAAAAAAAAAAAAAAAAAAAAAAAAAAAAAAAAAAAAAAAAAAAAAAAAAAAAAAAAAAAAAAAAAAAAAAAAAAAAAAAAAAAAAAAAAAAAAAAAAAAAAAAAAAAAAAAAAAAAAAAAAAAAAAAAAAAAAAAAAAAAAAAAAAAAAAAAAAAAAAAAAAAAAAAAAAAAAAAAAAAAAAAAAAAAAAAAAAAAAAAAAAAAAAAAAAAAAAAAAAAAAAAAAAAAAAAAAAAAAAAAAAAAAAAAAAAAAAAAAAAAAAAAAAAAAAAAAAAAAAAAAAAAAAAAAAAAAAAAAAAAAAAAAAAAAAAAAAAAAAAAAAAAAAAAAAAAAAAAAAAAAAAAAAAAAAAAAAAAAAAAAAAAAAAAAAAAAAAAAAAAAAAAAAAAAAAAAAAAAAAAAAAAAAAAAAAAAAAAAAAAAAAAAAAAAAAAAAAAAAAAAAAAAAAAAAAAAAAAAAAAAAAAAAAAAAAAAAAAAAAAAAAAAAAAAAAAAAAAAAAAAAAAAAAAAAAAAAAAAAAAAAAAAAAAAAAAAAAAAAAAAAAAAAAAAAAAAAAAAAAAAAAAAAAAAAAAAAAAAAAAAAAAAAAAAAAAAAAAAAAAAAAAAAAAAAAAAAAAAAAAAAAAAAAAAAAAAAAAAAAAAAAAAAAAAAAAAAAAAAAAAAAAAAAAAAAAAAAAAAAAAAAAAAAAAAAAAAAAAAAAAAAAAAAAAAAAAAAAAAAAAAAAAAAAAAAAAAAAAAAAAAAAAAAAAAAAAAAAAAAAAAAAAAAAAAAAAAAAAAAAAAAAAAAAAAAAAAAAAAAAAAAAAAAAAAAAAAAAAAAAAAAAAAAAAAAAAAAAAAAAAAAAAAAAAAAAAAAAAAAAAAAAAAAAAAAAAAAAAAAAAAAAAAAAAAAAAAAAAAAAAAAAAAAAAAAAAAAAAAAAAAAAAAAAAAAAAAAAAAAAAAAAAAAAAAAAAAAAAAAAAAAAAAAAAAAAAAAAAAAAAAAAAAAAAAAAAAAAAAAAAAAAAAAAAAAAAAAAAAAAAAAAAAAAAAAAAAAAAAAAAAAAAAAAAAAAAAAAAAAAAAAAAAAAAAAAAAAAAAAAAAAAAAAAAAAAAAAAAAAAAAAAAAAAAAAAAAAAAAAAAAAAAAAAAAAAAAAAAAAAAAAAAAAAAAAAAAAAAAAAAAAAAAAAAAAAAAAAAAAAAAAAAAAAAAAAAAAAAAAAAAAAAAAAAAAAAAAAAAAAAAAAAAAAAAAAAAAAAAAAAAAAAAAAAAAAAAAAAAAAAAAAAAAAAAAAAAAAAAAAAAAAAAAAAAAAAAAAAAAAAAAAAAAAAAAAAAAAAAAAAAAAAAAAAAAAAAAAAAAAAAAAAAAAAAAAAAAAAAAAAAAAAAAAAAAAAAAAAAAAAAAAAAAAPZYQCovAM+THSZdIV0V3LbsqYmy//39v9C/HoedCj7FnecBPLR/8xcd8OfQR6CqaWSAUcZSOKQJFNxZ4l9vwSYL/68=</c2pa:manifest></metadata>
  <defs>
    
  </defs>
  <g id="Layer_1-2" data-name="Layer 1">
    <polygon fill="#8A6446" points="5.42 99.63 7.68 101.92 10.2 99.39 10.2 98.94 7.68 96.41 5.42 98.67 3.16 96.41 .6 98.97 .6 99.33 3.16 101.92 5.42 99.63"></polygon>
    <path fill="#8A6446" d="M29.46,105.41h-1.2l-1.93,4.18c.96,1.26,1.93,3.07,2.35,4.54-2.44.63-4.99,1.02-7.49,1.02-2.8,0-5.23-.45-6.5-1.2h0c-1.41-.81-1.69-1.17-2.11-4.06l-.99-7.04h-1.2l-1.48,3.19-4.33,2.59c-3.19,1.9-3.91,4.39-3.91,6.2,0,2.65,1.59,4.3,4.24,4.3,1.44,0,3.46-.48,4.3-.84l.9-2.68c.54,1.92,1.47,2.95,2.79,3.7h0c1.57.9,3.88,1.33,6.38,1.33,3.16,0,6.65-.69,9.33-1.99.15-.06.57-.27.69-.33l1.41-3.79c.42-1.14.6-2.26.54-3.34l.84-2.02-2.65-3.76ZM6.56,113.74c-2.08,0-3.01-.63-3.37-1.44l6.11-2.38.45,3.55c-1.17.18-2.35.27-3.19.27"></path>
    <polygon fill="#8A6446" points="26.42 124.46 24.16 122.2 21.6 124.76 21.6 125.12 24.16 127.71 26.42 125.42 28.68 127.71 31.2 125.18 31.2 124.73 28.68 122.2 26.42 124.46"></polygon>
    <path fill="#8A6446" d="M41.58,106.34h-1.2l-2.14,4.88c1.23,1.44,2.53,2.89,3.85,5.11-.93,3.31-4.42,5.78-9.45,6.77v1.47l6.47,2.41c2.98-3.46,5.11-8,5.11-12.13,0-.51-.03-1.02-.09-1.53l1.08-2.5-3.64-4.48Z"></path>
    <polygon fill="#8A6446" points="102.08 100.05 104.33 102.34 106.86 99.81 106.86 99.36 104.33 96.83 102.08 99.09 99.82 96.83 97.26 99.39 97.26 99.75 99.82 102.34 102.08 100.05"></polygon>
    <path fill="#8A6446" d="M129.72,97.19l-2.17,2.95.72,14.08c-.78.15-1.51.15-2.11.15h-1.59c-1.32,0-2.5-.03-3.55-.15,1.93-1.32,2.77-2.95,2.77-4.72,0-3.34-2.95-4.42-6.02-4.42-1.84,0-3.67.39-5.09.9l-1.87,4.03v.45c.87,1.41,1.75,2.68,2.65,3.82-1.11.06-2.38.09-4,.09-1.5,0-2.83-.03-4-.12,1.2-1.35,1.9-2.98,1.9-4.9,0-3.19-1.84-4.6-4.27-4.6-4.12,0-7.4,3.97-7.4,7.49,0,.75.15,1.47.42,2.11-.93.03-1.86.03-2.65.03,0,0-.02,0-.03,0h0s-6.53,0-6.53,0c-.01,0-.02,0-.03,0h0s-6.53,0-6.53,0c-.01,0-.02,0-.03,0h0s-6.53,0-6.53,0c-.01,0-.02,0-.03,0h0s-6.53,0-6.53,0c-.01,0-.02,0-.03,0h0s-6.53,0-6.53,0c-.01,0-.02,0-.03,0h0s-6.53,0-6.53,0c-.01,0-.02,0-.03,0h0c-2.56,0-3.25-.28-3.25-2.26v-14.93h-1.2l-2.74,4,.75,11.83c.3,4.93,2.14,7.04,4.96,7.04.01,0,.02,0,.03,0h0s6.53,0,6.53,0c.01,0,.02,0,.03,0h0s6.53,0,6.53,0c.01,0,.02,0,.03,0h0s6.53,0,6.53,0c.01,0,.02,0,.03,0h0s6.53,0,6.53,0c.01,0,.02,0,.03,0h0s6.53,0,6.53,0c.01,0,.02,0,.03,0h0s6.53,0,6.53,0c.01,0,.02,0,.03,0h0c1.14,0,3.13-.12,4.15-.45l3.46-1.72c2.53,1.44,5.81,2.17,8.4,2.17,0,0,.02,0,.03,0h0c1.78,0,4.21-.33,5.6-.84l2.59-2.11c2.32,1.89,5.02,2.95,8.51,2.95h0s.02,0,.02,0c2.12,0,3.95-.84,4.45-1.23,1.45-3.64,2.02-7.28,2.02-11.22v-2.86l1.33-1.53-1.62-6.02h-1.2ZM102.38,113.77c-2.17-.51-3.55-1.38-4.63-2.77.78-.63,1.93-1.23,3.16-1.23,1.68,0,2.89,1.08,2.89,3.61l-1.41.39ZM118.32,113.71c-1.62-.51-2.86-1.38-3.94-2.83l-.54-.72c.93-.09,1.99-.15,2.92-.15,2.11,0,4.03.3,4.03,1.35,0,.78-.99,1.65-2.47,2.35"></path>
    <path fill="#8A6446" d="M139.14,97.19h-1.2l-2.47,3.94,1.08,19.41h1.42l1.08-4.87c.24-1.14.39-2.41.39-3.58v-7.34l1.32-1.53-1.62-6.02Z"></path>
    <polygon fill="#8A6446" points="171.78 128.67 169.52 126.41 166.97 128.97 166.97 129.33 169.52 131.92 171.78 129.63 174.04 131.92 176.56 129.39 176.56 128.94 174.04 126.41 171.78 128.67"></polygon>
    <path fill="#8A6446" d="M192.72,119.97l.99-4.12c.36-1.47-.45-3.76-4-4.6l-4.96-1.17.15-.42c.33-.93,2.32-2.92,4.96-2.92,1.17,0,2.08.39,3.07,1.45h1.17c.33-.99.66-2.38.66-3.25,0-1.87-1.54-3.1-3.61-3.1-3.76,0-8.42,4.12-8.42,9.09,0,2.35,1.05,3.82,3.55,4.33l5.14,1.05c-5.14,1.47-11.92,2.56-19.35,2.56-8.09,0-14.98-1.29-23.35-5.36l-.72.96,4.6,6.08c6.26,2.95,12.37,3.73,18.42,3.73,8.18,0,16.19-1.44,21.7-4.3"></path>
    <path fill="#8A6446" d="M201.11,106.34h-1.2l-2.14,4.88c1.23,1.44,2.53,2.89,3.85,5.11-.93,3.31-4.42,5.78-9.45,6.77v1.47l6.47,2.41c2.98-3.46,5.12-8,5.12-12.13,0-.51-.03-1.02-.09-1.53l1.08-2.5-3.64-4.48Z"></path>
    <polygon fill="#8A6446" points="232.7 102.34 234.96 104.63 237.48 102.1 237.48 101.65 234.96 99.12 232.7 101.38 230.44 99.12 227.88 101.68 227.88 102.04 230.44 104.63 232.7 102.34"></polygon>
    <path fill="#8A6446" d="M257.79,106.94h-1.2l-1.99,3.67c1.02,1.44,1.72,2.68,2.05,3.88l-4.72-1.08.9-2.62-1.96-.72-1.54,4.15c-.72.24-1.41.33-2.05.33-1.48,0-2.68-.51-3.73-1.08l.93-1.59-1.68-1.23-2.53,3.49c-.72.18-1.38.24-1.99.24,0,0-.01,0-.02,0h0c-2.29,0-2.68-.36-2.68-1.51v-5.39h-1.2l-2.29,2.89.21,3.25c0,.09,0,.18.03.27-3.94,1.29-8.52,1.66-12.64,1.66-.41,0-.81,0-1.21-.02,0-.09,0-.17,0-.25,0-6.11-3.16-9.06-6.23-9.06s-6.2,3.04-6.2,8.03c0,2.86.99,4.24,2.41,5.05,1.59.91,3.81,1.43,6.28,1.66-1.82,1.39-5.57,2.58-9.35,2.76v2.11l7.28,1.78c1.87-2.01,3.57-4.03,4.64-6.51.21,0,.41.01.62.01,5.27,0,10.89-1.05,13.81-2.47l.87-2.5c.66,2.83,2.08,3.91,4.15,3.91,0,0,.01,0,.02,0h0c1.02,0,2.32-.15,3.28-.72l1.02-1.74c1.11,1.29,2.59,2.47,4.39,2.47,1.59,0,2.8-.96,3.55-2.35l7.4,2.17,2.08-4.12c1.62-3.28.84-6.62-.75-8.82M207.94,112.15c0-.27,1.29-.72,2.83-.72,1.97,0,4.69,1.07,5.11,3.95-2.31-.22-4.32-.67-5.62-1.42h0c-.93-.54-2.32-1.54-2.32-1.81"></path>
    <path fill="#8A6446" d="M11.1,146.42l-2.89-.72c-2.89-.72-4.09-1.32-4.09-2.77,0-1.72,1.65-2.86,4.6-2.86,3.34,0,4.78,1.44,4.99,4.99l.96.27,1.75-5.54c-2.23-.99-4.48-1.57-7.16-1.57-5.42,0-8.91,2.26-8.91,6.17,0,2.59,1.47,4.6,6.02,5.81l3.07.78c3.31.9,4.21,1.51,4.21,3.16,0,2.23-1.6,4-4.9,4-3.73,0-5.66-2.26-5.45-6.32l-.96-.27-2.35,6.02c2.62,1.65,5.15,2.47,8.12,2.47,5.81,0,9.39-3.01,9.39-7.43,0-2.77-1.38-4.93-6.41-6.2"></path>
    <path fill="#8A6446" d="M27.08,157.61c-.9,0-1.41-.51-1.41-1.47v-10.47h2.89v-1.66h-2.89v-3.82h-1.05c-.57,1.72-3.94,4.24-5.81,4.48v.99h2.35v10.47c0,3.01,2.08,3.91,3.88,3.91,2.44,0,4-1.69,4.75-2.47l-.69-.69c-.39.3-1.17.72-2.02.72"></path>
    <path fill="#8A6446" d="M38.96,143.65c-5.12,0-8.49,3.16-8.49,8.22s3.34,8.18,8.4,8.18,8.49-3.16,8.49-8.25-3.34-8.15-8.4-8.15M39.77,158.34c-2.68,0-4.63-3.19-4.63-8.22,0-3.1.87-4.75,2.89-4.75,2.68,0,4.64,3.13,4.64,8.15,0,3.13-.87,4.81-2.89,4.81"></path>
    <path fill="#8A6446" d="M55.66,147.71v-4.06l-6.62,1.11v1.29c1.41.06,2.11.18,2.11,1.14v9.9c0,.78-.78,1.2-2.11,1.29v1.29h8.73v-1.29c-1.32-.09-2.11-.51-2.11-1.29v-7.76c1.71-.93,4.27-1.68,5.54-1.68l.03-3.94c-1.17,0-2.02.33-2.86.72l-2.71,3.28Z"></path>
    <path fill="#8A6446" d="M76.02,144.01v1.26c1.23.21,2.17.45,1.56,1.87l-3.31,7.97-3.97-8.46c-.42-.9.21-1.26,1.05-1.38v-1.26h-8.33v1.26c1.08.12,1.59.3,2.23,1.51l6.65,13.6c-1.05,1.2-2.77,2.02-5.66,2.02v4.24c3.31,0,5.99-1.53,7.97-6.5l5.27-12.73c.75-1.74.93-1.9,2.62-2.14v-1.26h-6.08Z"></path>
    <path fill="#8A6446" d="M110.98,156.86l-5.99-7.97c3.25-.81,5.81-2.41,5.81-5.27,0-3.34-3.37-4.99-7.85-4.99h-11.74v1.26c1.48.09,2.23.51,2.23,1.29v15.92c0,.78-.75,1.2-2.23,1.29v1.29h9.39v-1.29c-1.48-.09-2.23-.51-2.23-1.29v-7.37h1.17l7.37,9.96h7.25v-1.26c-1.44-.39-2.44-.57-3.19-1.57M99.4,147.84h-1.02v-6.65c0-.33.21-.57.78-.72h1.78c3.46,0,4.69,1.56,4.69,3.28,0,2.53-2.95,4.09-6.23,4.09"></path>
    <path fill="#8A6446" d="M123.49,143.65c-4.69,0-8.1,3.64-8.1,8.58,0,4.63,2.98,7.82,7.37,7.82,3.55,0,6.26-2.08,7.34-5.63l-.75-.39c-1.2,1.99-3.25,2.53-4.84,2.53-3.55,0-4.42-2.77-4.42-5.84h10.26c0-3.49-2.2-7.07-6.86-7.07M120.12,149.34c.15-2.41.93-4.06,3.04-4.06s2.68,1.74,2.8,4.06h-5.84Z"></path>
    <path fill="#8A6446" d="M147.56,157.77c-.6,0-1.08-.42-1.08-1.17v-7.61c0-4.42-3.4-5.3-6.5-5.3-2.23,0-4.3.45-6.08,1.2l.3,4.82h.96c1.23-2.83,2.89-4.39,4.57-4.39s2.44,1.62,2.44,3.67v.84l-1.42.12c-5.2.42-8.94,2.23-8.94,5.78,0,2.71,2.17,4.33,5.15,4.33,1.51,0,2.53-.42,3.64-1.17l1.57-2.08v.33c0,1.68,1.26,2.92,3.1,2.92,1.96,0,3.25-1.32,4-2.23l-.48-.57c-.33.27-.78.51-1.23.51M142.18,155.09c-.93,1.26-2.26,2.17-3.58,2.17s-2.23-.84-2.23-2.32c0-2.17,2.14-3.04,4.73-3.34l1.08-.09v3.58Z"></path>
    <path fill="#8A6446" d="M156.82,157.1v-20.49l-6.62,1.11v1.29c1.41.06,2.11.18,2.11,1.14v16.94c0,.78-.78,1.2-2.11,1.29v1.29h8.73v-1.29c-1.32-.09-2.11-.51-2.11-1.29"></path>
    <path fill="#8A6446" d="M180.2,157.86h-3.67c-.6,0-.78-.39-.78-.75v-7.46h2.62c1.86,0,2.98.78,3.76,2.56h.96l-.3-6.98h-.96c-.72,1.78-1.6,2.56-3.49,2.56h-2.59v-6.59c0-.33.24-.6.78-.72h3.4c2.59,0,4.39,2.32,4.96,4.39h.99l-.3-6.23h-16.91v1.26c1.47.09,2.23.51,2.23,1.29v15.92c0,.78-.75,1.2-2.23,1.29v1.29h17.21l.33-6.59h-.96c-.57,2.08-2.47,4.75-5.05,4.75"></path>
    <path fill="#8A6446" d="M197.2,149.37l-2.32-.6c-1.87-.45-2.29-1.2-2.29-1.8,0-.99,1.2-1.68,2.74-1.68,2.38.03,3.91,1.65,4.24,4.09l.9.21,1.11-4.27c-1.9-1.17-3.61-1.65-5.9-1.65-4.36,0-6.95,1.86-6.95,4.66,0,2.08,1.44,3.82,4.3,4.54l2.92.75c2.23.54,3.07,1.23,3.07,2.23,0,1.45-1.65,2.5-3.52,2.5-2.47,0-4.51-1.78-4.48-4.88l-.9-.27-1.74,4.48c1.96,1.47,4.12,2.38,6.95,2.38,4.45,0,7.52-2.23,7.52-5.72,0-2.29-1.32-3.85-5.66-4.97"></path>
    <path fill="#8A6446" d="M212.42,157.61c-.9,0-1.42-.51-1.42-1.47v-10.47h2.89v-1.66h-2.89v-3.82h-1.05c-.57,1.72-3.94,4.24-5.81,4.48v.99h2.35v10.47c0,3.01,2.08,3.91,3.88,3.91,2.44,0,4-1.69,4.75-2.47l-.69-.69c-.39.3-1.17.72-2.02.72"></path>
    <path fill="#8A6446" d="M231.31,157.77c-.6,0-1.08-.42-1.08-1.17v-7.61c0-4.42-3.4-5.3-6.5-5.3-2.23,0-4.3.45-6.08,1.2l.3,4.82h.96c1.23-2.83,2.89-4.39,4.57-4.39s2.44,1.62,2.44,3.67v.84l-1.42.12c-5.2.42-8.94,2.23-8.94,5.78,0,2.71,2.17,4.33,5.15,4.33,1.51,0,2.53-.42,3.64-1.17l1.57-2.08v.33c0,1.68,1.26,2.92,3.1,2.92,1.96,0,3.25-1.32,4-2.23l-.48-.57c-.33.27-.78.51-1.23.51M225.93,155.09c-.93,1.26-2.26,2.17-3.58,2.17s-2.23-.84-2.23-2.32c0-2.17,2.14-3.04,4.73-3.34l1.08-.09v3.58Z"></path>
    <path fill="#8A6446" d="M241.96,157.61c-.9,0-1.42-.51-1.42-1.47v-10.47h2.89v-1.66h-2.89v-3.82h-1.05c-.57,1.72-3.94,4.24-5.81,4.48v.99h2.35v10.47c0,3.01,2.08,3.91,3.88,3.91,2.44,0,4-1.69,4.75-2.47l-.69-.69c-.39.3-1.17.72-2.02.72"></path>
    <path fill="#8A6446" d="M254.47,156.56c-3.55,0-4.42-2.77-4.42-5.84h10.26c0-3.49-2.2-7.07-6.86-7.07s-8.1,3.64-8.1,8.58c0,4.63,2.98,7.82,7.37,7.82,3.55,0,6.26-2.08,7.34-5.63l-.75-.39c-1.2,1.99-3.25,2.53-4.84,2.53M253.12,145.28c2.14,0,2.68,1.74,2.8,4.06h-5.84c.15-2.41.93-4.06,3.04-4.06"></path>
    <path fill="#8A6446" d="M143.25,46.67c-.07-.43-.15-.86-.27-1.27l13.51-8.03c-.81-1.86-1.82-3.61-2.99-5.24l-13.34,7.93c-.1-.11-.19-.21-.29-.31l8.01-14.01c-1.59-1.22-3.32-2.29-5.15-3.16l-7.9,13.81c-.51-.19-1.04-.35-1.57-.48v-16c-.99-.1-2-.16-3.02-.16s-2.02.05-3.01.16v16c-.54.13-1.07.29-1.59.48l-7.9-13.81c-1.83.88-3.56,1.94-5.15,3.17l8.01,14.01c-.17.17-.33.36-.48.54l-13.73-8.16c-1.17,1.63-2.18,3.38-2.99,5.24l14.02,8.33c-.07.32-.14.64-.19.97h-15.9c-.05.67-.07,1.36-.07,2.05,0,1.35.09,2.68.28,3.99h57.39c.19-1.3.28-2.63.28-3.99,0-.69-.02-1.37-.07-2.05h-15.9Z"></path>
    <path fill="#8A6446" d="M172.02,24.95c-2.27-9.06-7.7-15.8-16.14-20.02C149.04,1.51,140.18-.19,130.25.02c-9.93-.21-18.79,1.49-25.64,4.91-8.45,4.22-13.88,10.96-16.14,20.02-1.12,4.49-1.66,9.74-1.57,15.2-.1,5.46.44,10.71,1.57,15.2,2.26,9.06,7.7,15.8,16.14,20.02,6.84,3.42,15.7,5.12,25.64,4.92.54.01,1.07.02,1.6.02,9.29,0,17.57-1.7,24.04-4.93,8.45-4.22,13.88-10.96,16.14-20.02,1.12-4.49,1.66-9.74,1.57-15.2.1-5.46-.44-10.71-1.57-15.2M171.89,40.17c.1,5.32-.43,10.42-1.52,14.77-5.3,21.19-27.41,23.91-40.11,23.65h-.04c-12.71.26-34.81-2.46-40.11-23.65-1.09-4.35-1.61-9.46-1.52-14.77v-.03c-.1-5.32.43-10.42,1.52-14.77C95.41,4.17,117.52,1.45,130.23,1.72h.02s.02,0,.02,0c12.71-.26,34.81,2.46,40.11,23.65,1.09,4.35,1.61,9.46,1.52,14.77v.03Z"></path>
  </g>
</svg>